<svg width="204" height="37" viewBox="0 0 204 37" fill="none" xmlns="http://www.w3.org/2000/svg">
<path d="M55.7571 12.3545V17.9297C55.7571 18.0943 55.8224 18.2521 55.9388 18.3685C56.0552 18.4848 56.213 18.5503 56.3776 18.5503H61.7436C61.8247 18.5499 61.9051 18.5336 61.9799 18.5023C62.0548 18.4709 62.1228 18.4251 62.18 18.3675C62.2371 18.3099 62.2824 18.2416 62.3132 18.1665C62.3439 18.0913 62.3596 18.0109 62.3593 17.9297V12.3569C62.359 12.2753 62.3748 12.1944 62.4059 12.119C62.437 12.0436 62.4827 11.9751 62.5403 11.9174C62.598 11.8597 62.6666 11.814 62.742 11.7829C62.8174 11.7518 62.8983 11.736 62.9798 11.7363H65.7458C65.8272 11.7363 65.9078 11.7524 65.9829 11.7836C66.0581 11.8148 66.1263 11.8606 66.1837 11.9182C66.2412 11.9759 66.2867 12.0443 66.3176 12.1196C66.3485 12.1949 66.3643 12.2755 66.364 12.3569V28.8301C66.3643 28.9114 66.3485 28.9921 66.3176 29.0673C66.2867 29.1426 66.2412 29.211 66.1837 29.2687C66.1263 29.3263 66.0581 29.3721 65.9829 29.4033C65.9078 29.4345 65.8272 29.4506 65.7458 29.4506H62.9798C62.8983 29.4509 62.8174 29.4351 62.742 29.404C62.6666 29.3729 62.598 29.3272 62.5403 29.2695C62.4827 29.2118 62.437 29.1433 62.4059 29.0679C62.3748 28.9924 62.359 28.9116 62.3593 28.8301V22.6559C62.3593 22.4919 62.2942 22.3347 62.1783 22.2188C62.0623 22.1029 61.9051 22.0378 61.7412 22.0378H56.3752C56.211 22.0378 56.0536 22.1028 55.9372 22.2186C55.8209 22.3345 55.7553 22.4917 55.7547 22.6559V28.8301C55.755 28.9114 55.7392 28.9921 55.7083 29.0673C55.6774 29.1426 55.6319 29.211 55.5744 29.2687C55.517 29.3263 55.4488 29.3721 55.3736 29.4033C55.2985 29.4345 55.2179 29.4506 55.1365 29.4506H52.3705C52.289 29.4509 52.2081 29.4351 52.1327 29.404C52.0573 29.3729 51.9887 29.3272 51.931 29.2695C51.8734 29.2118 51.8277 29.1433 51.7966 29.0679C51.7655 28.9924 51.7497 28.9116 51.75 28.8301V12.3569C51.7497 12.2753 51.7655 12.1944 51.7966 12.119C51.8277 12.0436 51.8734 11.9751 51.931 11.9174C51.9887 11.8597 52.0573 11.814 52.1327 11.7829C52.2081 11.7518 52.289 11.736 52.3705 11.7363H55.1437C55.3068 11.7376 55.4628 11.8033 55.5777 11.9191C55.6926 12.0349 55.7571 12.1914 55.7571 12.3545V12.3545Z" fill="black"/>
<path d="M74.1005 25.3501L73.0999 28.9892C73.0637 29.1196 72.9858 29.2347 72.8781 29.3168C72.7704 29.3988 72.6388 29.4434 72.5034 29.4437H69.6701C69.5732 29.4439 69.4776 29.4213 69.391 29.3778C69.3045 29.3342 69.2293 29.2709 69.1717 29.1929C69.1141 29.115 69.0757 29.0245 69.0595 28.929C69.0433 28.8334 69.0498 28.7354 69.0784 28.6428L74.1053 12.1673C74.144 12.0405 74.2223 11.9295 74.3289 11.8507C74.4354 11.7719 74.5644 11.7294 74.697 11.7295H79.0263C79.1585 11.7292 79.2873 11.7714 79.3938 11.8498C79.5003 11.9281 79.5789 12.0385 79.618 12.1648L84.7483 28.6404C84.7768 28.7331 84.7833 28.8313 84.7671 28.9269C84.7509 29.0226 84.7124 29.1131 84.6549 29.1912C84.5974 29.2693 84.5223 29.3328 84.4358 29.3767C84.3492 29.4206 84.2536 29.4435 84.1566 29.4437H81.1429C81.0097 29.4435 80.8803 29.4003 80.7736 29.3206C80.667 29.2408 80.589 29.1288 80.5512 29.0012L79.452 25.3357C79.4141 25.2083 79.336 25.0966 79.2294 25.0172C79.1227 24.9379 78.9933 24.8952 78.8604 24.8955H74.6994C74.5633 24.8945 74.4308 24.9385 74.3225 25.0208C74.2141 25.103 74.1361 25.2188 74.1005 25.3501ZM77.8983 21.9107C77.9943 21.9108 78.089 21.8885 78.175 21.8456C78.2609 21.8027 78.3356 21.7404 78.3933 21.6637C78.4509 21.5869 78.4899 21.4977 78.5071 21.4032C78.5243 21.3087 78.5193 21.2116 78.4924 21.1194L77.6217 18.1465C77.3162 17.1003 77.0036 15.7726 76.7318 14.736H76.6764C76.4167 15.7774 76.1497 17.1219 75.8659 18.1513L75.0265 21.1242C75.0004 21.2163 74.9961 21.3131 75.0138 21.4072C75.0316 21.5012 75.0709 21.5898 75.1287 21.6661C75.1865 21.7423 75.2613 21.8041 75.347 21.8466C75.4328 21.889 75.5273 21.911 75.623 21.9107H77.8983Z" fill="black"/>
<path d="M102.784 22.6683C102.702 20.5205 102.62 17.9685 102.63 15.3709H102.557C101.992 17.639 101.249 20.1573 100.583 22.2474L98.548 28.7197C98.5086 28.8452 98.4302 28.9549 98.3242 29.0327C98.2182 29.1106 98.0902 29.1526 97.9587 29.1527H95.77C95.6349 29.1525 95.5035 29.1083 95.3959 29.0267C95.2882 28.9451 95.2102 28.8306 95.1735 28.7005L93.3913 22.3075C92.8212 20.2222 92.2319 17.7064 91.7942 15.3709H91.7389C91.6499 17.7761 91.5513 20.5156 91.4455 22.7212L91.1424 28.8544C91.135 29.0133 91.0666 29.1633 90.9514 29.273C90.8363 29.3828 90.6833 29.4439 90.5243 29.4437H88.0686C87.9839 29.4435 87.9002 29.4261 87.8226 29.3924C87.745 29.3587 87.6751 29.3094 87.6172 29.2477C87.5593 29.186 87.5146 29.113 87.4859 29.0334C87.4573 28.9538 87.4452 28.8692 87.4504 28.7847L88.5063 12.3091C88.5161 12.1519 88.5855 12.0045 88.7004 11.8967C88.8153 11.789 88.967 11.7292 89.1244 11.7295H93.4177C93.5515 11.7297 93.6816 11.7732 93.7886 11.8533C93.8957 11.9335 93.9739 12.0462 94.0118 12.1745L95.6088 17.6511C96.1692 19.6811 96.7152 21.9058 97.1121 23.9839H97.1963C97.6773 21.9323 98.281 19.5969 98.8799 17.6246L100.624 12.16C100.664 12.0352 100.742 11.9263 100.848 11.849C100.954 11.7716 101.082 11.7298 101.213 11.7295H105.412C105.571 11.7293 105.724 11.7901 105.839 11.8994C105.954 12.0086 106.022 12.1579 106.031 12.3163L106.916 28.7919C106.92 28.8758 106.907 28.9596 106.878 29.0384C106.849 29.1172 106.804 29.1893 106.746 29.2502C106.688 29.3112 106.619 29.3597 106.542 29.393C106.465 29.4262 106.382 29.4435 106.298 29.4437H103.652C103.492 29.4438 103.338 29.382 103.223 29.2712C103.108 29.1605 103.04 29.0094 103.034 28.8496L102.784 22.6683Z" fill="black"/>
<path d="M110.14 26.0412C110.162 25.9539 110.202 25.8723 110.258 25.8022C110.315 25.7322 110.385 25.6752 110.466 25.6354C110.547 25.5955 110.635 25.5737 110.725 25.5715C110.815 25.5693 110.904 25.5868 110.987 25.6227C112.181 26.1321 113.464 26.4026 114.763 26.4188C116.6 26.4188 117.577 25.654 117.577 24.4947C117.577 23.4051 116.73 22.7653 114.611 22.0173C111.655 20.9686 109.724 19.3595 109.724 16.7716C109.724 13.7506 112.259 11.4561 116.425 11.4561C117.789 11.4301 119.147 11.6567 120.429 12.1247C120.573 12.1805 120.691 12.2877 120.76 12.4254C120.83 12.5631 120.845 12.7217 120.805 12.8703L120.251 14.8739C120.229 14.9569 120.19 15.0344 120.136 15.1013C120.082 15.1682 120.015 15.223 119.939 15.2622C119.862 15.3014 119.778 15.3242 119.693 15.329C119.607 15.3338 119.521 15.3205 119.441 15.29C118.46 14.9094 117.417 14.7153 116.365 14.7175C114.621 14.7175 113.789 15.5257 113.789 16.43C113.789 17.5557 114.77 18.0535 117.067 18.9194C120.194 20.0931 121.656 21.7214 121.656 24.2252C121.656 27.1812 119.39 29.7211 114.515 29.7211C112.96 29.7203 111.42 29.424 109.976 28.848C109.842 28.7888 109.734 28.6835 109.67 28.5512C109.607 28.4189 109.592 28.2683 109.63 28.1265L110.14 26.0412Z" fill="black"/>
<path d="M128.489 15.092H124.949C124.867 15.0923 124.787 15.0765 124.711 15.0456C124.636 15.0147 124.568 14.9692 124.51 14.9117C124.452 14.8543 124.407 14.7861 124.375 14.7109C124.344 14.6358 124.328 14.5552 124.328 14.4738V12.3501C124.328 12.2685 124.344 12.1876 124.375 12.1122C124.406 12.0367 124.452 11.9682 124.509 11.9105C124.567 11.8528 124.635 11.8071 124.711 11.7761C124.786 11.745 124.867 11.7292 124.949 11.7295H137.343C137.424 11.7295 137.505 11.7456 137.58 11.7768C137.655 11.808 137.723 11.8538 137.781 11.9114C137.838 11.9691 137.883 12.0375 137.914 12.1128C137.945 12.188 137.961 12.2687 137.961 12.3501V14.4738C137.961 14.6377 137.896 14.795 137.78 14.9109C137.664 15.0268 137.507 15.092 137.343 15.092H133.735C133.653 15.092 133.573 15.108 133.498 15.1392C133.423 15.1704 133.354 15.2162 133.297 15.2739C133.239 15.3315 133.194 15.3999 133.163 15.4752C133.132 15.5505 133.116 15.6311 133.117 15.7125V28.8232C133.117 28.9046 133.101 28.9852 133.07 29.0605C133.039 29.1358 132.994 29.2042 132.937 29.2619C132.879 29.3195 132.811 29.3652 132.736 29.3964C132.661 29.4277 132.58 29.4437 132.499 29.4437H129.728C129.646 29.4437 129.566 29.4277 129.491 29.3964C129.416 29.3652 129.347 29.3195 129.29 29.2619C129.232 29.2042 129.187 29.1358 129.156 29.0605C129.125 28.9852 129.109 28.9046 129.11 28.8232V15.7125C129.11 15.631 129.094 15.5503 129.062 15.475C129.031 15.3998 128.986 15.3313 128.928 15.2737C128.87 15.2161 128.802 15.1704 128.727 15.1392C128.651 15.108 128.571 15.092 128.489 15.092Z" fill="black"/>
<path d="M150.563 21.9491H145.271C145.107 21.9498 144.95 22.0155 144.834 22.1318C144.718 22.2481 144.653 22.4055 144.653 22.5697V25.5425C144.653 25.6239 144.669 25.7045 144.699 25.7798C144.73 25.8551 144.776 25.9235 144.833 25.9811C144.891 26.0388 144.959 26.0846 145.034 26.1158C145.109 26.147 145.19 26.1631 145.271 26.1631H151.32C151.484 26.1631 151.641 26.2282 151.757 26.3441C151.873 26.46 151.938 26.6173 151.938 26.7812V28.8232C151.939 28.9046 151.923 28.9852 151.892 29.0605C151.861 29.1358 151.816 29.2042 151.758 29.2618C151.701 29.3195 151.633 29.3652 151.557 29.3964C151.482 29.4277 151.402 29.4437 151.32 29.4437H141.267C141.185 29.4437 141.105 29.4277 141.029 29.3964C140.954 29.3652 140.886 29.3195 140.829 29.2618C140.771 29.2042 140.726 29.1358 140.695 29.0605C140.664 28.9852 140.648 28.9046 140.648 28.8232V12.3501C140.648 12.2687 140.664 12.188 140.695 12.1128C140.726 12.0375 140.771 11.9691 140.829 11.9114C140.886 11.8538 140.954 11.808 141.029 11.7768C141.105 11.7455 141.185 11.7295 141.267 11.7295H150.94C151.105 11.7295 151.263 11.7949 151.379 11.9112C151.495 12.0276 151.561 12.1855 151.561 12.3501V14.3921C151.56 14.5562 151.494 14.7134 151.378 14.8293C151.262 14.9451 151.104 15.0101 150.94 15.0101H145.271C145.19 15.0101 145.109 15.0263 145.034 15.0575C144.959 15.0887 144.891 15.1344 144.833 15.1921C144.776 15.2497 144.73 15.3181 144.699 15.3934C144.669 15.4687 144.653 15.5493 144.653 15.6307V18.0816C144.653 18.2455 144.718 18.4028 144.834 18.5187C144.95 18.6346 145.107 18.6997 145.271 18.6997H150.563C150.727 18.7004 150.884 18.7659 151.001 18.8822C151.117 18.9984 151.183 19.1559 151.183 19.3203V21.331C151.183 21.4952 151.117 21.6524 151.001 21.7682C150.884 21.8841 150.727 21.9492 150.563 21.9491Z" fill="black"/>
<path d="M154.625 12.5028C154.625 12.3527 154.68 12.2079 154.779 12.0951C154.878 11.9823 155.015 11.9092 155.164 11.8895C156.75 11.6833 158.348 11.5837 159.948 11.5912C162.574 11.5912 164.414 11.9929 165.679 12.9935C166.738 13.8353 167.32 15.0788 167.32 16.7071C167.32 18.9511 165.715 20.5145 164.193 21.0605V21.1446C165.422 21.6401 166.117 22.8139 166.56 24.4422C166.968 25.9406 167.37 27.6098 167.692 28.6417C167.721 28.7342 167.728 28.8323 167.711 28.9278C167.695 29.0234 167.657 29.1138 167.599 29.1918C167.542 29.2697 167.466 29.333 167.38 29.3766C167.293 29.4202 167.198 29.4427 167.101 29.4425H164.291C164.169 29.4444 164.048 29.4088 163.946 29.3405C163.843 29.2722 163.764 29.1744 163.719 29.0602C163.289 27.8351 162.938 26.5834 162.67 25.3129C162.189 23.1001 161.432 22.5084 159.784 22.4868H159.212C159.048 22.4874 158.89 22.5531 158.774 22.6694C158.659 22.7857 158.594 22.9431 158.594 23.1073V28.8221C158.594 28.9036 158.578 28.9844 158.547 29.0599C158.516 29.1353 158.47 29.2038 158.413 29.2615C158.355 29.3192 158.286 29.3649 158.211 29.396C158.135 29.4271 158.055 29.4429 157.973 29.4425H155.243C155.162 29.4426 155.081 29.4265 155.006 29.3953C154.931 29.3641 154.863 29.3183 154.805 29.2607C154.748 29.203 154.702 29.1346 154.671 29.0593C154.64 28.9841 154.625 28.9034 154.625 28.8221V12.5028ZM158.594 18.9704C158.594 19.1343 158.659 19.2915 158.775 19.4074C158.891 19.5234 159.048 19.5885 159.212 19.5885H160.174C162.16 19.5885 163.349 18.5759 163.349 17.0366C163.349 15.4155 162.237 14.5857 160.407 14.5761C159.883 14.5761 159.476 14.5953 159.171 14.6242C159.016 14.6369 158.872 14.7073 158.768 14.8214C158.663 14.9356 158.605 15.085 158.606 15.2399L158.594 18.9704Z" fill="black"/>
<path d="M16.9905 7.21406C16.3379 7.37966 15.6558 7.12508 15.1729 6.65581C14.1342 5.64615 12.7164 5.02441 11.1535 5.02441C7.96835 5.02441 5.38625 7.60651 5.38625 10.7917C5.38625 11.1382 5.41684 11.4776 5.47544 11.8073C5.55259 12.2414 5.40332 12.6949 5.05689 12.9675C2.04175 15.3403 0.105469 19.0225 0.105469 23.157C0.105469 30.3138 5.90724 36.1156 13.0641 36.1156C16.7652 36.1156 20.1039 34.5641 22.4652 32.0759C24.8265 34.5641 28.1651 36.1156 31.8662 36.1156C39.0232 36.1156 44.825 30.3138 44.825 23.157C44.825 19.3649 43.1962 15.9533 40.6 13.5835C40.2654 13.2781 40.1529 12.7983 40.276 12.3623C40.417 11.863 40.4925 11.3362 40.4925 10.7917C40.4925 7.60651 37.9104 5.02441 34.7251 5.02441C33.2411 5.02441 31.8881 5.58497 30.8661 6.50578C30.4072 6.91919 29.7874 7.1446 29.1839 7.01382C27.3956 6.6263 25.4902 6.41719 23.513 6.41719C21.2185 6.41719 19.0208 6.69885 16.9905 7.21406Z" fill="#A05E1C"/>
<path d="M5.41601 12.473C5.34378 12.6648 5.223 12.8371 5.05689 12.9678C2.04175 15.3406 0.105469 19.0228 0.105469 23.1573C0.105469 30.3141 5.90724 36.1159 13.0641 36.1159C16.7652 36.1159 20.1039 34.5644 22.4652 32.0762C24.8265 34.5644 28.1651 36.1159 31.8662 36.1159C39.0232 36.1159 44.825 30.3141 44.825 23.1573C44.825 19.3652 43.1962 15.9535 40.6 13.5838C40.3479 13.3537 40.2219 13.0246 40.2277 12.6898L40.1606 12.8819C40.1606 12.8819 32.5187 11.7914 28.2288 16.09C22.1795 22.1516 22.1795 29.2342 22.1795 29.2342C22.1795 29.2342 22.1795 21.627 16.337 16.09C11.5367 11.5407 5.44171 12.503 5.44171 12.503L5.41601 12.473Z" fill="#E9C89C"/>
<path d="M21.3659 32.1532C21.8763 32.7484 22.7973 32.7484 23.3077 32.1532L24.4255 30.8496C25.1369 30.02 24.5475 28.738 23.4546 28.738H21.219C20.1261 28.738 19.5367 30.02 20.2481 30.8496L21.3659 32.1532Z" fill="black"/>
<path d="M31.6469 22.9624C32.5878 22.4877 33.073 21.0459 32.7305 19.742C32.388 18.438 31.3477 17.7657 30.4068 18.2403C29.4659 18.7149 28.9807 20.1567 29.3232 21.4607C29.6657 22.7646 30.706 23.437 31.6469 22.9624Z" fill="black"/>
<path d="M30.7014 20.1126C31.0529 19.9847 31.2342 19.596 31.1062 19.2445C30.9783 18.8929 30.5896 18.7117 30.2381 18.8396C29.8865 18.9676 29.7053 19.3563 29.8332 19.7078C29.9612 20.0593 30.3499 20.2406 30.7014 20.1126Z" fill="white"/>
<path d="M13.3569 22.9673C12.416 22.4927 11.9309 21.0508 12.2733 19.7469C12.6158 18.4429 13.6562 17.7705 14.5971 18.2451C15.538 18.7197 16.0232 20.1616 15.6807 21.4656C15.3382 22.7696 14.2978 23.4419 13.3569 22.9673Z" fill="black"/>
<path d="M14.3025 20.1175C13.951 19.9896 13.7697 19.6009 13.8977 19.2493C14.0256 18.8978 14.4143 18.7166 14.7658 18.8445C15.1174 18.9725 15.2986 19.3611 15.1707 19.7127C15.0427 20.0642 14.654 20.2455 14.3025 20.1175Z" fill="white"/>
<path fill-rule="evenodd" clip-rule="evenodd" d="M25.2248 29.1916C24.4526 29.6924 23.8549 30.2995 23.5415 30.7046L23.4883 30.6634C23.8061 30.2526 24.4092 29.6403 25.1881 29.1351C25.967 28.6299 26.9243 28.23 27.9494 28.2487L27.9482 28.316C26.9411 28.2977 25.997 28.6907 25.2248 29.1916Z" fill="black"/>
<path fill-rule="evenodd" clip-rule="evenodd" d="M25.9189 30.0628C25.0113 30.2163 24.2219 30.5363 23.7735 30.7839L23.7409 30.725C24.1956 30.474 24.9922 30.1512 25.9076 29.9965C26.823 29.8417 27.8604 29.8545 28.794 30.2783L28.7662 30.3396C27.849 29.9232 26.8265 29.9094 25.9189 30.0628Z" fill="black"/>
<path fill-rule="evenodd" clip-rule="evenodd" d="M25.835 31.151C24.9229 31.0277 24.074 31.0986 23.5723 31.2017L23.5587 31.1357C24.0675 31.0313 24.924 30.9599 25.844 31.0843C26.764 31.2087 27.7507 31.5293 28.5161 32.2115L28.4713 32.2617C27.7194 31.5915 26.7472 31.2744 25.835 31.151Z" fill="black"/>
<path fill-rule="evenodd" clip-rule="evenodd" d="M19.4901 29.1916C20.2622 29.6924 20.8599 30.2995 21.1733 30.7046L21.2266 30.6634C20.9088 30.2526 20.3056 29.6403 19.5267 29.1351C18.7479 28.6299 17.7906 28.23 16.7654 28.2487L16.7666 28.316C17.7737 28.2977 18.7178 28.6907 19.4901 29.1916Z" fill="black"/>
<path fill-rule="evenodd" clip-rule="evenodd" d="M18.7843 30.0628C19.6918 30.2163 20.4812 30.5363 20.9297 30.7839L20.9622 30.725C20.5075 30.474 19.7109 30.1512 18.7955 29.9965C17.8801 29.8417 16.8428 29.8545 15.9091 30.2783L15.937 30.3396C16.8541 29.9232 17.8767 29.9094 18.7843 30.0628Z" fill="black"/>
<path fill-rule="evenodd" clip-rule="evenodd" d="M18.8603 31.151C19.7724 31.0277 20.6213 31.0986 21.1231 31.2017L21.1366 31.1357C20.6279 31.0313 19.7713 30.9599 18.8513 31.0843C17.9313 31.2087 16.9446 31.5293 16.1792 32.2115L16.224 32.2617C16.9759 31.5915 17.9481 31.2744 18.8603 31.151Z" fill="black"/>
<path fill-rule="evenodd" clip-rule="evenodd" d="M174.268 0.115234H200.482V1.5225H201.893V0.115234H203.303V9.76508C203.303 12.4848 201.099 14.6895 198.379 14.6895H169.344V13.279H170.754V14.6893H172.164V13.2789L170.754 13.279L170.754 11.8686H169.344V5.03964C169.344 2.31997 171.548 0.115234 174.268 0.115234ZM203.303 1.5226L201.893 1.5225L201.892 2.93301H203.303V1.5226Z" fill="black"/>
<path d="M194.801 4.77598C194.801 4.73902 194.831 4.70906 194.868 4.70906H196.079C196.116 4.70906 196.146 4.6791 196.146 4.64215V3.42433C196.146 3.38738 196.176 3.35742 196.213 3.35742H197.216C197.253 3.35742 197.283 3.38738 197.283 3.42433V4.64215C197.283 4.6791 197.313 4.70906 197.35 4.70906H198.568C198.605 4.70906 198.635 4.73902 198.635 4.77598V5.77967C198.635 5.81662 198.605 5.84658 198.568 5.84658H197.35C197.313 5.84658 197.283 5.87654 197.283 5.91349V7.12462C197.283 7.16157 197.253 7.19153 197.216 7.19153H196.213C196.176 7.19153 196.146 7.16157 196.146 7.12462V5.91349C196.146 5.87654 196.116 5.84658 196.079 5.84658H194.868C194.831 5.84658 194.801 5.81662 194.801 5.77967V4.77598Z" fill="white"/>
<path d="M176.193 5.57905C176.705 5.57905 177.105 5.70578 177.393 5.95924C177.68 6.21271 177.824 6.57341 177.824 7.04135V9.56088C177.824 9.6352 177.764 9.69544 177.689 9.69544H176.941C176.891 9.69544 176.844 9.66694 176.821 9.62172L176.596 9.1763C176.591 9.16734 176.582 9.1617 176.572 9.1617V9.1617C176.564 9.1617 176.556 9.16543 176.551 9.17177C176.441 9.30862 176.327 9.42225 176.208 9.51265C176.091 9.60039 175.955 9.66376 175.799 9.70275C175.643 9.74662 175.453 9.76856 175.228 9.76856C174.994 9.76856 174.785 9.72225 174.6 9.62964C174.414 9.53215 174.268 9.38836 174.161 9.19826C174.054 9.00328 174 8.75713 174 8.45979C174 8.02597 174.149 7.70427 174.446 7.49467C174.748 7.28507 175.184 7.16809 175.755 7.14371L176.369 7.12369C176.402 7.12262 176.427 7.0959 176.427 7.06329V7.06329C176.427 6.88294 176.384 6.7562 176.296 6.68309C176.208 6.6051 176.089 6.5661 175.938 6.5661C175.777 6.5661 175.599 6.59535 175.404 6.65384C175.249 6.69632 175.093 6.74951 174.936 6.81341C174.867 6.84139 174.787 6.8105 174.758 6.74229L174.46 6.05976C174.431 5.99493 174.458 5.91892 174.522 5.88936C174.727 5.79512 174.953 5.72337 175.199 5.6741C175.496 5.61073 175.828 5.57905 176.193 5.57905ZM176.113 7.90411C175.86 7.91386 175.679 7.96017 175.572 8.04303C175.47 8.12102 175.418 8.23313 175.418 8.37936C175.418 8.51585 175.455 8.61821 175.528 8.68645C175.601 8.74982 175.699 8.7815 175.821 8.7815C175.991 8.7815 176.135 8.72788 176.252 8.62064C176.374 8.51341 176.435 8.37449 176.435 8.20389V8.0303C176.435 7.95359 176.371 7.8924 176.294 7.89589L176.113 7.90411Z" fill="white"/>
<path d="M180.171 9.56088C180.171 9.6352 180.111 9.69544 180.037 9.69544H178.909C178.835 9.69544 178.775 9.6352 178.775 9.56088V4.27323C178.775 4.19892 178.835 4.13867 178.909 4.13867H180.037C180.111 4.13867 180.171 4.19892 180.171 4.27323V9.56088Z" fill="white"/>
<path d="M183.609 5.57905C184.058 5.57905 184.409 5.7594 184.662 6.1201C184.916 6.47593 185.043 6.99017 185.043 7.66283C185.043 8.12102 184.977 8.50853 184.845 8.82537C184.718 9.13733 184.543 9.37373 184.319 9.53459C184.099 9.69057 183.848 9.76856 183.566 9.76856C183.376 9.76856 183.215 9.74418 183.083 9.69544C182.951 9.6467 182.842 9.58821 182.754 9.51996C182.67 9.45028 182.6 9.3806 182.543 9.31091C182.538 9.30443 182.53 9.30062 182.521 9.30062V9.30062C182.505 9.30062 182.492 9.31479 182.494 9.33107C182.503 9.41503 182.511 9.50481 182.52 9.60039C182.53 9.70763 182.535 9.83192 182.535 9.97328V11.3157C182.535 11.39 182.474 11.4502 182.4 11.4502H181.273C181.198 11.4502 181.138 11.39 181.138 11.3157V5.78672C181.138 5.7124 181.198 5.65216 181.273 5.65216H182.179C182.235 5.65216 182.285 5.68639 182.305 5.73829L182.456 6.12986C182.464 6.15041 182.483 6.16397 182.505 6.16397V6.16397C182.524 6.16397 182.541 6.15462 182.551 6.13944C182.615 6.04182 182.69 5.95251 182.776 5.87151C182.873 5.78377 182.99 5.71309 183.127 5.65947C183.263 5.60585 183.424 5.57905 183.609 5.57905ZM183.083 6.67578C182.947 6.67578 182.839 6.7099 182.761 6.77814C182.683 6.8415 182.627 6.93655 182.593 7.06329C182.559 7.19002 182.54 7.35087 182.535 7.54585V7.65552C182.535 7.86999 182.549 8.05034 182.579 8.19658C182.613 8.34281 182.671 8.45492 182.754 8.53291C182.837 8.60602 182.949 8.64258 183.09 8.64258C183.207 8.64258 183.305 8.6109 183.383 8.54753C183.466 8.47929 183.527 8.37205 183.566 8.22582C183.605 8.07959 183.624 7.88705 183.624 7.64821C183.624 7.29238 183.578 7.04135 183.485 6.89512C183.393 6.74889 183.259 6.67578 183.083 6.67578Z" fill="white"/>
<path d="M187.233 4.92832C187.233 5.22565 187.226 5.47668 187.211 5.68141C187.198 5.85999 187.187 6.00149 187.178 6.10589C187.176 6.12924 187.195 6.14935 187.218 6.14935V6.14935C187.232 6.14935 187.245 6.14219 187.252 6.13057C187.337 5.99803 187.43 5.89218 187.533 5.81301C187.645 5.73015 187.769 5.67166 187.906 5.63754C188.042 5.59854 188.191 5.57905 188.352 5.57905C188.62 5.57905 188.861 5.63023 189.075 5.73259C189.29 5.83495 189.46 5.9958 189.587 6.21515C189.719 6.42962 189.785 6.71233 189.785 7.06329V9.56088C189.785 9.6352 189.724 9.69544 189.65 9.69544H188.515C188.441 9.69544 188.381 9.6352 188.381 9.56088V7.48736C188.381 7.21927 188.342 7.01698 188.264 6.8805C188.186 6.74402 188.064 6.67578 187.898 6.67578C187.733 6.67578 187.601 6.72452 187.503 6.82201C187.406 6.91949 187.335 7.06085 187.291 7.24608C187.252 7.42643 187.233 7.65065 187.233 7.91874V9.56088C187.233 9.6352 187.173 9.69544 187.098 9.69544H185.971C185.897 9.69544 185.836 9.6352 185.836 9.56088V4.27323C185.836 4.19892 185.897 4.13867 185.971 4.13867H187.098C187.173 4.13867 187.233 4.19892 187.233 4.27323V4.92832Z" fill="white"/>
<path d="M192.709 5.57905C193.22 5.57905 193.62 5.70578 193.908 5.95924C194.195 6.21271 194.339 6.57341 194.339 7.04135V9.56088C194.339 9.6352 194.279 9.69544 194.205 9.69544H193.457C193.406 9.69544 193.36 9.66694 193.337 9.62172L193.111 9.1763C193.106 9.16734 193.097 9.1617 193.087 9.1617V9.1617C193.079 9.1617 193.071 9.16543 193.066 9.17177C192.957 9.30862 192.842 9.42225 192.723 9.51265C192.606 9.60039 192.47 9.66376 192.314 9.70275C192.158 9.74662 191.968 9.76856 191.744 9.76856C191.51 9.76856 191.3 9.72225 191.115 9.62964C190.93 9.53215 190.783 9.38836 190.676 9.19826C190.569 9.00328 190.515 8.75713 190.515 8.45979C190.515 8.02597 190.664 7.70427 190.961 7.49467C191.263 7.28507 191.7 7.16809 192.27 7.14371L192.884 7.12369C192.917 7.12262 192.943 7.0959 192.943 7.06329V7.06329C192.943 6.88294 192.899 6.7562 192.811 6.68309C192.723 6.6051 192.604 6.5661 192.453 6.5661C192.292 6.5661 192.114 6.59535 191.919 6.65384C191.765 6.69632 191.609 6.74951 191.451 6.81341C191.382 6.84139 191.303 6.8105 191.273 6.74229L190.975 6.05976C190.947 5.99493 190.973 5.91892 191.037 5.88936C191.242 5.79512 191.468 5.72337 191.714 5.6741C192.012 5.61073 192.343 5.57905 192.709 5.57905ZM192.628 7.90411C192.375 7.91386 192.194 7.96017 192.087 8.04303C191.985 8.12102 191.934 8.23313 191.934 8.37936C191.934 8.51585 191.97 8.61821 192.043 8.68645C192.116 8.74982 192.214 8.7815 192.336 8.7815C192.506 8.7815 192.65 8.72788 192.767 8.62064C192.889 8.51341 192.95 8.37449 192.95 8.20389V8.0303C192.95 7.95359 192.886 7.8924 192.809 7.89589L192.628 7.90411Z" fill="white"/>
</svg>
